<svg xmlns="http://www.w3.org/2000/svg" viewBox="0 0 1100 760" role="img" aria-labelledby="title desc">
  <title id="title">Client candidate shortlisting</title>
  <desc id="desc">Vector illustration of a company reviewing screened candidate profiles.</desc>
  <rect width="1100" height="760" rx="50" fill="#f8fafd"/>
  <rect x="110" y="112" width="880" height="536" rx="34" fill="#fff" stroke="#dadce0" stroke-width="4"/>
  <rect x="176" y="180" width="748" height="70" rx="20" fill="#e8f0fe"/>
  <circle cx="226" cy="215" r="22" fill="#4285f4"/>
  <path d="M278 214h266" stroke="#4285f4" stroke-width="12" stroke-linecap="round"/>
  <path d="M278 326h560M278 432h560M278 538h560" stroke="#dadce0" stroke-width="5" stroke-linecap="round"/>
  <g>
    <rect x="176" y="288" width="748" height="76" rx="22" fill="#fff" stroke="#e8eaed" stroke-width="4"/>
    <rect x="176" y="394" width="748" height="76" rx="22" fill="#fff" stroke="#e8eaed" stroke-width="4"/>
    <rect x="176" y="500" width="748" height="76" rx="22" fill="#fff" stroke="#e8eaed" stroke-width="4"/>
  </g>
  <g>
    <circle cx="230" cy="326" r="24" fill="#ea4335"/>
    <circle cx="230" cy="432" r="24" fill="#fbbc04"/>
    <circle cx="230" cy="538" r="24" fill="#34a853"/>
    <rect x="770" y="306" width="96" height="40" rx="20" fill="#e6f4ea"/>
    <rect x="770" y="412" width="96" height="40" rx="20" fill="#e8f0fe"/>
    <rect x="770" y="518" width="96" height="40" rx="20" fill="#fef7e0"/>
  </g>
  <g font-family="Arial, Helvetica, sans-serif" font-weight="700">
    <text x="294" y="334" font-size="22" fill="#202124">Prepared AI candidate</text>
    <text x="294" y="440" font-size="22" fill="#202124">Web3 developer profile</text>
    <text x="294" y="546" font-size="22" fill="#202124">Internship shortlist</text>
    <text x="796" y="332" font-size="16" fill="#137333">Ready</text>
    <text x="792" y="438" font-size="16" fill="#174ea6">Match</text>
    <text x="792" y="544" font-size="16" fill="#b06000">New</text>
  </g>
</svg>
