<svg xmlns="http://www.w3.org/2000/svg" viewBox="0 0 1100 760" role="img" aria-labelledby="title desc">
  <title id="title">Career and hiring consultation</title>
  <desc id="desc">Vector illustration of a professional consultation between candidates and a hiring partner.</desc>
  <rect width="1100" height="760" rx="50" fill="#f8fafd"/>
  <rect x="90" y="130" width="920" height="500" rx="32" fill="#fff" stroke="#dadce0" stroke-width="4"/>
  <rect x="156" y="200" width="300" height="240" rx="28" fill="#e8f0fe"/>
  <rect x="644" y="200" width="300" height="240" rx="28" fill="#e6f4ea"/>
  <circle cx="306" cy="280" r="48" fill="#4285f4"/>
  <path d="M218 396c18-58 62-88 88-88s70 30 88 88" fill="#fff" opacity=".88"/>
  <circle cx="794" cy="280" r="48" fill="#34a853"/>
  <path d="M706 396c18-58 62-88 88-88s70 30 88 88" fill="#fff" opacity=".88"/>
  <rect x="490" y="238" width="120" height="56" rx="28" fill="#fbbc04"/>
  <path d="M490 342h120" stroke="#dadce0" stroke-width="12" stroke-linecap="round"/>
  <path d="M480 386h140" stroke="#dadce0" stroke-width="12" stroke-linecap="round"/>
  <path d="M196 500h708" stroke="#dadce0" stroke-width="4" stroke-linecap="round"/>
  <rect x="214" y="536" width="190" height="36" rx="18" fill="#1a73e8"/>
  <rect x="456" y="536" width="190" height="36" rx="18" fill="#ea4335"/>
  <rect x="698" y="536" width="190" height="36" rx="18" fill="#34a853"/>
  <g font-family="Arial, Helvetica, sans-serif" font-weight="700">
    <text x="204" y="116" font-size="36" fill="#202124">Consult. Prepare. Connect.</text>
    <text x="248" y="565" font-size="18" fill="#fff">Candidate</text>
    <text x="502" y="565" font-size="18" fill="#fff">Internix</text>
    <text x="756" y="565" font-size="18" fill="#fff">Company</text>
  </g>
</svg>
