<?xml version="1.0" encoding="utf-8"?>
<!-- Generator: Adobe Illustrator 27.5.0, SVG Export Plug-In . SVG Version: 6.00 Build 0)  -->
<svg version="1.1" xmlns="http://www.w3.org/2000/svg" xmlns:xlink="http://www.w3.org/1999/xlink" x="0px" y="0px"
	 viewBox="0 0 750 500" style="enable-background:new 0 0 750 500;" xml:space="preserve">
<g id="BACKGROUND">
</g>
<g id="OBJECTS">
	<g style="opacity:0.24;">
		<g>
			<g>
				<g>
					<path style="fill:#3D384E;" d="M56.662,250.805c0,0,33.287-28.493,19.896-32.698c-11.994-3.766-18.465,25.45-19.683,31.583
						C56.733,250.404,56.662,250.805,56.662,250.805z"/>
				</g>
				<g>
					<path style="fill:#3D384E;" d="M56.359,250.288c0,0-28.493-33.287-32.698-19.896C19.456,243.783,56.359,250.288,56.359,250.288
						z"/>
				</g>
				<g>
					<path style="fill:#3D384E;" d="M64.259,278.946c0,0,33.286-28.493,19.896-32.698C70.764,242.044,64.259,278.946,64.259,278.946
						z"/>
				</g>
				<g>
					<path style="fill:#3D384E;" d="M64.277,279.077c0,0-28.493-33.286-32.697-19.896C27.375,272.572,64.277,279.077,64.277,279.077
						z"/>
				</g>
				<g>
					<path style="fill:#3D384E;" d="M73.45,302.624c0,0,29.203-24.997,17.455-28.686C79.157,270.249,73.45,302.624,73.45,302.624z"
						/>
				</g>
				<g>
					<path style="fill:#3D384E;" d="M73.785,302.611c0,0-24.997-29.203-28.686-17.455C41.41,296.904,73.785,302.611,73.785,302.611z
						"/>
				</g>
				<g>
					<path style="fill:#3D384E;" d="M84.806,324.739c0,0,24.123-26.753,12.761-28.763C86.204,293.964,84.806,324.739,84.806,324.739
						z"/>
				</g>
				<g>
					<path style="fill:#3D384E;" d="M85.433,324.41c0,0-26.753-24.123-28.763-12.761C54.659,323.011,85.433,324.41,85.433,324.41z"
						/>
				</g>
				<g>
					<g>
						<path style="fill:#3D384E;" d="M98.426,345.146c0,0,16.386-32.08,4.891-31.085C91.821,315.056,98.426,345.146,98.426,345.146z
							"/>
					</g>
					<g>
						<path style="fill:#3D384E;" d="M98.544,344.708c0,0-32.08-16.387-31.085-4.891C68.455,351.313,98.544,344.708,98.544,344.708z
							"/>
					</g>
				</g>
				<g>
					<g>
						<path style="fill:#3D384E;" d="M112.521,362.402c0,0,14.207-27.813,4.24-26.951
							C106.795,336.315,112.521,362.402,112.521,362.402z"/>
					</g>
					<g>
						<path style="fill:#3D384E;" d="M112.947,361.725c0,0-27.813-14.207-26.95-4.24
							C86.859,367.452,112.947,361.725,112.947,361.725z"/>
					</g>
				</g>
				<g>
					<g>
						<path style="fill:#3D384E;" d="M124.386,374.822c0,0,12.134-23.754,3.621-23.017
							C119.495,352.541,124.386,374.822,124.386,374.822z"/>
					</g>
					<g>
						<path style="fill:#3D384E;" d="M124.908,374.148c0,0-23.754-12.133-23.017-3.621
							C102.627,379.039,124.908,374.148,124.908,374.148z"/>
					</g>
				</g>
			</g>
		</g>
		<path style="fill:#3D384E;" d="M57.169,252.793c0,0-1.761-45.325-10.595-43.832C37.741,210.455,57.169,252.793,57.169,252.793z"/>
		<path style="fill:none;stroke:#3D384E;stroke-miterlimit:10;" d="M55.019,243.166c0,0,13.59,103.266,104.33,156.794"/>
	</g>
	<ellipse style="opacity:0.24;fill:#3D384E;" cx="386.976" cy="410.794" rx="346.815" ry="19.991"/>
	<g>
		<polygon style="fill:#3D384E;" points="125.402,329.632 129.351,340.491 146.528,340.096 140.21,326.868 		"/>
		<path style="fill:#524B69;" d="M140.343,262.749l-29.507-0.607c-4.439-0.091-7.854,3.9-7.077,8.271l9.947,55.945
			c0.606,3.409,3.601,5.871,7.063,5.807l29.739-0.555c4.35-0.081,7.585-4.048,6.791-8.325l-10.179-54.783
			C146.511,265.22,143.68,262.818,140.343,262.749z"/>
		<path style="fill:#3D384E;" d="M144.629,262.153l-29.507-0.607c-4.439-0.091-7.854,3.9-7.076,8.271l9.947,55.945
			c0.606,3.409,3.601,5.871,7.063,5.807l29.739-0.555c4.35-0.081,7.585-4.048,6.791-8.325l-10.179-54.783
			C150.796,264.624,147.966,262.221,144.629,262.153z"/>
	</g>
	<g>
		<path style="fill:#3D384E;" d="M129.064,339.735h51.646c2.161,0,3.913,1.752,3.913,3.913v1.345c0,2.161-1.752,3.913-3.913,3.913
			h-54.882C125.827,348.905,124.748,343.51,129.064,339.735z"/>
		<g>
			<rect x="150.811" y="347.781" style="fill:#3D384E;" width="5.464" height="50.054"/>
			<g>
				<polygon style="fill:#3D384E;" points="128.579,410.624 125.706,405.134 151.589,390.418 154.462,395.908 				"/>
			</g>
			<g>
				<polygon style="fill:#3D384E;" points="178.177,410.624 152.294,395.908 155.167,390.418 181.05,405.134 				"/>
			</g>
			<path style="fill:#3D384E;" d="M133.115,406.23c0,2.707-2.194,4.901-4.901,4.901c-2.707,0-4.901-2.194-4.901-4.901
				c0-2.706,2.194-4.901,4.901-4.901C130.921,401.33,133.115,403.524,133.115,406.23z"/>
			<path style="fill:#3D384E;" d="M182.628,406.23c0,2.707-2.194,4.901-4.901,4.901c-2.706,0-4.901-2.194-4.901-4.901
				c0-2.706,2.194-4.901,4.901-4.901C180.434,401.33,182.628,403.524,182.628,406.23z"/>
		</g>
	</g>
	<g>
		<g>
			<g>
				<g>
					<path style="fill:#8BBAE0;" d="M159.044,316.762l-0.028,0.12c0,0,50.844,7.976,59.219,14.894
						c8.375,6.919-0.229,68.493-0.229,68.493l-8.739-0.728l-8.516-56.262c0,0-59.214,7.468-63.583-7.462
						c-1.291-4.412-1.437-11.4-1.003-19.055H159.044z"/>
					<polygon style="fill:#3D384E;" points="218.006,400.27 234.223,408.838 208.83,408.838 208.615,399.162 					"/>
				</g>
				<g>
					<path style="fill:#9ED3FF;" d="M133.96,308.342c-4.697,6.278-2.847,27.666,5.569,29.076c41.623,6.971,77.23-6.581,77.23-6.581
						l11.894,45.718l7.954-0.686c0,0,1.254-54.572-7.221-59.097c-8.476-4.526-70.359-6.897-70.359-6.897L133.96,308.342z"/>
					<polygon style="fill:#3D384E;" points="236.607,375.87 252.357,380.61 229.535,384.366 228.623,376.34 					"/>
				</g>
			</g>
			<g>
				<path style="fill:#3D384E;" d="M173.578,237.63c0,18.917-7.112,51.249-18.841,51.249c-11.729,0-18.684-32.332-18.684-51.249
					c0-18.917,0.999-34.481,18.684-35.345C173.032,203.56,173.578,218.714,173.578,237.63z"/>
				<g>
					<path style="fill:#FF7A17;" d="M126.854,304.528l10.453-33.567c0,0,2.051,24.683-1.463,33.567h36.993
						c-3.515-8.884-1.463-33.567-1.463-33.567l10.424,33.567h8.538c-1.782-9.878-8.118-43.79-11.673-47.11
						c-4.165-3.89-13.266-3.668-16.39-4.677c-3.124-1.008-2.197-9.676-2.197-9.676l-5.735,0.257l-4.686-0.022
						c0,0,0.291,8.538-2.833,9.546c-3.124,1.008-12.638,0.682-16.804,4.572c-3.549,3.314-9.906,37.166-11.709,47.11H126.854z"/>
					<polygon style="fill:#FF7A17;" points="125.076,295.456 171.285,301.011 170.022,305.304 118.251,304.601 					"/>
				</g>
				<g>
					<g>
						<g>
							<g>
								<path style="fill:#FFC1B2;" d="M167.194,227.143c0,0,1.014,7.524-1.522,12.005c-2.536,4.481-8.539,6.113-10.399,6.053
									c-1.484-0.049-9.385-0.811-12.428-7.997c-3.043-7.186-0.676-21.39-0.676-21.39l10.145-1.246l7.271,1.246l5.411,2.452
									l2.398,3.128L167.194,227.143z"/>
								<path style="fill:#FFC1B2;" d="M143.817,230.178c0.102,2.336-0.727,4.269-1.852,4.318c-1.125,0.049-2.12-1.805-2.222-4.14
									c-0.102-2.336,0.728-4.269,1.853-4.318C142.721,225.989,143.715,227.843,143.817,230.178z"/>
								<path style="fill:#FFC1B2;" d="M165.608,230.117c-0.196,2.331,0.445,4.287,1.431,4.37c0.986,0.083,1.945-1.739,2.141-4.07
									s-0.445-4.287-1.431-4.37C166.763,225.964,165.804,227.787,165.608,230.117z"/>
							</g>
						</g>
					</g>
					<g>
						<polygon style="fill:#3D384E;" points="143.979,218.544 142.775,232.211 139.581,219.245 						"/>
						<polygon style="fill:#3D384E;" points="168.496,219.505 166.311,232.633 165.297,219.742 						"/>
						<polygon style="fill:#3D384E;" points="159.034,216.512 159.811,221.11 169.723,221.11 166.796,210.459 142.229,210.315 
							139.028,221.11 146.232,221.11 147.522,216.591 148.617,221.11 158.204,221.11 						"/>
					</g>
				</g>
			</g>
		</g>
		<g>
			<polygon style="fill:#3D384E;" points="165.457,307.22 249.489,307.22 262.267,238.904 176.211,238.904 			"/>
			<circle style="fill:#FFFFFF;" cx="216.201" cy="276.08" r="9.269"/>
		</g>
	</g>
	<g>
		<path style="opacity:0.24;fill:#3D384E;" d="M645.099,397.523c85.499-26.169,73.637-129.372,73.637-129.372
			c-71.443,19.273-78.512,78.41-76.944,109.715c-10.719-26.343-43.561-33.44-43.561-33.44
			c-2.845,44.602,39.267,52.171,45.971,53.092C644.202,397.518,644.901,397.587,645.099,397.523z"/>
		<path style="opacity:0.24;fill:#3D384E;" d="M518.587,328.694c0,0-49.974,11.636-54.593,54.394
			c-5.297-43.009-55.869-53.581-55.869-53.581c-0.692,12.121,1.328,24.092,7.711,34.58c6.127,10.066,15.342,17.323,25.997,22.124
			c4.927,2.22,10.338,4.143,15.639,5.235c14.597,3.007,31.911-5.034,42.846-14.334c14.095-11.989,19.686-30.111,18.285-48.214
			C518.598,328.83,518.593,328.762,518.587,328.694z"/>
	</g>
	<rect x="609.586" y="61.636" style="opacity:0.14;fill:#3D384E;" width="113.809" height="76.793"/>
	<g>
		<rect x="39.845" y="61.636" style="opacity:0.14;fill:#3D384E;" width="113.809" height="27.046"/>
		<rect x="39.845" y="95.935" style="opacity:0.14;fill:#3D384E;" width="113.809" height="79.447"/>
	</g>
	<g>
		<g>
			<rect x="365.049" y="61.788" style="fill:#CCCCCC;" width="232.814" height="160.318"/>
			<rect x="371.266" y="68.115" style="fill:#FFFFFF;" width="220.381" height="147.664"/>
		</g>
		<g>
			<g>
				<rect x="509.03" y="124.16" style="fill:#CCCCCC;" width="8.255" height="91.625"/>
				<rect x="526.375" y="124.16" style="fill:#FF7A17;" width="8.255" height="91.625"/>
				<rect x="478.845" y="124.16" style="fill:#9ED3FF;" width="8.255" height="91.625"/>
				<rect x="544.528" y="155.923" style="fill:#9ED3FF;" width="11.252" height="59.861"/>
				<rect x="443.743" y="157.27" style="fill:#FF7A17;" width="5.34" height="58.515"/>
			</g>
			<g>
				<rect x="394.315" y="111.87" style="fill:#3D384E;" width="22.164" height="103.764"/>
				<rect x="427.412" y="99.006" style="fill:#9ED3FF;" width="9.434" height="116.778"/>
				<rect x="456.168" y="139.344" style="fill:#3D384E;" width="14.514" height="76.291"/>
				<rect x="490.75" y="141.054" style="fill:#3D384E;" width="10.319" height="74.731"/>
				<rect x="562.68" y="141.054" style="fill:#3D384E;" width="10.319" height="74.731"/>
			</g>
		</g>
		<g>
			<path style="fill:#FF7A17;" d="M559.914,79.356c-8.932,0-16.6,5.402-19.922,13.115l19.922,8.569V79.356z"/>
			<path style="fill:#3D384E;" d="M539.991,92.471c-1.132,2.629-1.762,5.525-1.762,8.569c0,11.976,9.708,21.684,21.684,21.684
				V101.04L539.991,92.471z"/>
			<path style="fill:#9ED3FF;" d="M579.836,109.609c1.132-2.629,1.762-5.525,1.762-8.569c0-11.976-9.708-21.685-21.684-21.685
				v21.685L579.836,109.609z"/>
			<path style="fill:#CCCCCC;" d="M559.914,101.04v21.684c8.932,0,16.6-5.402,19.922-13.115L559.914,101.04z"/>
		</g>
		<g>
			
				<line style="fill:none;stroke:#3D384E;stroke-linecap:round;stroke-miterlimit:10;" x1="451.026" y1="83.538" x2="506.865" y2="83.538"/>
			
				<line style="fill:none;stroke:#3D384E;stroke-linecap:round;stroke-miterlimit:10;" x1="451.026" y1="86.739" x2="506.865" y2="86.739"/>
			
				<line style="fill:none;stroke:#3D384E;stroke-linecap:round;stroke-miterlimit:10;" x1="451.026" y1="89.94" x2="506.865" y2="89.94"/>
			
				<line style="fill:none;stroke:#3D384E;stroke-linecap:round;stroke-miterlimit:10;" x1="451.026" y1="93.141" x2="506.865" y2="93.141"/>
			
				<line style="fill:none;stroke:#3D384E;stroke-linecap:round;stroke-miterlimit:10;" x1="451.026" y1="96.342" x2="506.865" y2="96.342"/>
			
				<line style="fill:none;stroke:#3D384E;stroke-linecap:round;stroke-miterlimit:10;" x1="451.026" y1="99.543" x2="506.865" y2="99.543"/>
			
				<line style="fill:none;stroke:#3D384E;stroke-linecap:round;stroke-miterlimit:10;" x1="451.026" y1="102.744" x2="506.865" y2="102.744"/>
			
				<line style="fill:none;stroke:#3D384E;stroke-linecap:round;stroke-miterlimit:10;" x1="451.026" y1="105.945" x2="506.865" y2="105.945"/>
			
				<line style="fill:none;stroke:#3D384E;stroke-linecap:round;stroke-miterlimit:10;" x1="451.026" y1="109.146" x2="506.865" y2="109.146"/>
		</g>
	</g>
	<g>
		<g>
			<path style="fill:#FFC1B2;" d="M333.817,171.014c0,0,0.398,14.504-0.356,15.677c-0.754,1.173-8.993-1.119-9.077-1.789
				c-0.084-0.67-0.055-14.967-0.055-14.967L333.817,171.014z"/>
			<g>
				<path style="fill:#FFC1B2;" d="M340.571,153.277c0,0,4.678,24.678-4.678,25.969c-9.355,1.29-16.291-1.452-16.291-12.742
					s0.816-13.682,0.816-13.682L340.571,153.277z"/>
				<path style="fill:#3D384E;" d="M322.04,163.744c0.529-0.477,0.874-1.158,1.149-1.813c0.582-1.388,0.99-2.849,1.211-4.337
					c0.169-1.137,0.274-2.324,1.676-2.473c1.943-0.207,3.864,0.806,5.608,1.532c1.879,0.782,3.524,2.009,5.338,2.917
					c1.882,0.943,3.53,0.353,4.61-1.401c0.84-1.364,1.32-3.251,0.913-4.834c-0.978-3.803-6.846-7.477-16.19-6.716
					c-9.344,0.76-9.71,11.222-8.515,15.351c0.482,1.667,1.68,2.96,3.478,2.232C321.592,164.091,321.831,163.934,322.04,163.744z"/>
				<path style="fill:#FFC1B2;" d="M324.183,165.01c0,2.09-1.371,3.784-3.063,3.784c-1.692,0-3.063-1.694-3.063-3.784
					c0-2.09,1.371-3.784,3.063-3.784C322.812,161.226,324.183,162.92,324.183,165.01z"/>
			</g>
		</g>
		<g>
			<g>
				<g>
					<path style="fill:#FFC1B2;" d="M357.028,188.593c0,0,34.649-0.143,50.641-12.675l1.808,4.643c0,0-11.032,17.186-50.102,21.249
						L357.028,188.593z"/>
					<path style="fill:#FFC1B2;" d="M407.527,176.168l0.982-4.681l2.931-3.237c0,0,0.934,0.499,0.059,2.161
						c-0.875,1.661-1.236,2.174-1.236,2.174s6.79-7.377,7.478-6.464c0.688,0.913-2.849,5.076-2.849,5.076s3.527,3.383,2.681,6.125
						c-0.846,2.742-8.578,3.608-8.578,3.608L407.527,176.168z"/>
				</g>
				<path style="fill:#B6DFFF;" d="M338.964,187.577l23.845-0.44c0,0,3.868,13.282,2.874,17.029l-23.713,4.701L338.964,187.577z"/>
			</g>
			<g>
				<g>
					<g>
						<path style="fill:#3D384E;" d="M302.072,245.958c0,0-4.453,90.958,2.633,150.738h7.459l19.348-106.133l-0.701-49.546
							L302.072,245.958z"/>
						<polygon style="fill:#3D384E;" points="304.704,396.696 286.477,408.007 312.542,408.007 312.542,396.696 						"/>
					</g>
					<g>
						<path style="fill:#3D384E;" d="M353.206,256.108c0,0,6.05,80.807-1.036,140.587h-7.459L325.058,281.42l1.005-40.403
							L353.206,256.108z"/>
						<polygon style="fill:#3D384E;" points="352.221,396.696 370.448,408.007 344.384,408.007 344.384,396.696 						"/>
					</g>
				</g>
				<g>
					<path style="fill:#9ED3FF;" d="M325.08,184.352l-21.828,7.178l0.539,65.072l50.104,0.18l-2.632-49.83
						c-0.557-8.141-4.806-15.703-11.743-19.999c-1.806-1.119-3.645-2.025-5.68-2.531c0.093,0.071,1.345,3.193,0.94,3.127
						l-3.415,0.835L325.08,184.352z"/>
					<g>
						<path style="fill:#9ED3FF;" d="M314.852,287.109l-13.824-7.981c-0.372-0.215-0.5-0.691-0.285-1.063l0,0
							c0.215-0.372,0.691-0.5,1.063-0.285l13.824,7.981c0.372,0.215,0.5,0.691,0.285,1.063l0,0
							C315.7,287.197,315.224,287.324,314.852,287.109z"/>
						<path style="fill:#FFC1B2;" d="M298.638,217.89c0,0-4.534,32.453,3.818,56.554l5.011-0.716c0,0,2.02-48.889,6.019-58.787
							L298.638,217.89z"/>
						<path style="fill:#FFC1B2;" d="M307.467,273.728l2.953,4.009l1.939,5.816c0,0-1.846,0.462-2.216-1.662
							c0,0,1.662,6.278,0.738,6.739c-0.923,0.462-1.108-1.754-2.954-2.493s-3.97-0.923-4.524-2.954
							c-0.554-2.031-0.923-9.047-0.923-9.047L307.467,273.728z"/>
					</g>
					<g>
						<polygon style="fill:#3D384E;" points="331.819,188.084 328.496,192.583 321.237,185.531 324.351,183.223 						"/>
						<polygon style="fill:#3D384E;" points="333.534,188.252 336.69,191.687 337.011,185.48 333.807,184.319 						"/>
						<path style="fill:#3D384E;" d="M335.805,186.612c0.237,1.582-1.169,3.104-3.139,3.398s-3.759-0.75-3.995-2.332
							c-0.237-1.582,1.54-1.931,3.51-2.225C334.151,185.159,335.568,185.03,335.805,186.612z"/>
						<path style="fill:#3D384E;" d="M330.311,188.682c0.598,0,5.579,39.255-2.79,57.985l8.369,8.568l8.072-8.211
							c0,0-0.496-41.189-10.064-59.14L330.311,188.682z"/>
					</g>
					<path style="fill:#B6DFFF;" d="M296.22,220.39c0,0-1.022-30.507,10.477-29.597c11.499,0.911,7.155,30.811,7.155,30.811
						L296.22,220.39z"/>
				</g>
			</g>
		</g>
	</g>
	<g>
		<g>
			<g>
				<g>
					<path style="fill:#414347;" d="M614.797,317.454l0.028,0.12c0,0-54.621,0.728-62.996,7.647
						c-8.375,6.919,4.005,75.741,4.005,75.741l8.739-0.728l4.734-55.713c0,0,62.996,6.919,67.366-8.011
						c1.291-4.412,1.437-11.4,1.003-19.055H614.797z"/>
					<polygon style="fill:#3D384E;" points="555.835,400.962 539.618,409.531 565.011,409.531 565.226,399.855 					"/>
				</g>
				<g>
					<path style="fill:#4C4F54;" d="M619.826,317.468l0.025,0.107c0,0-54.621,0.728-62.996,7.647
						c-8.375,6.919,4.006,75.741,4.006,75.741l8.739-0.728l4.734-55.713c0,0,64.02,10.792,68.389-4.138
						c1.291-4.409,0.413-15.265-0.02-22.915H619.826z"/>
					<polygon style="fill:#3D384E;" points="560.861,400.962 544.644,409.531 570.037,409.531 569.595,399.977 					"/>
				</g>
			</g>
			<g>
				<g>
					<rect x="618.549" y="240.742" style="fill:#FFC1B2;" width="8.786" height="14.212"/>
					<path style="fill:#FFC1B2;" d="M611.785,230.842c0,0-1.329,11.655,1.91,16.314c0.493,0.71,1.389,1.027,2.238,0.865
						c2.755-0.527,9.235-2.118,10.711-5.622c1.887-4.481-1.179-16.509-1.179-16.509S614.615,224.71,611.785,230.842z"/>
					<path style="fill:#3D384E;" d="M611.645,232.199c0,0-1.248-17.451,15.743-17.916c18.337-0.502,21.361,39.406,12.36,100.272
						l-11.893-9.777l-1.072-72.869L611.645,232.199z"/>
				</g>
				<g>
					<path style="fill:#FF7A17;" d="M618.299,254.01c0,0,0.545,2.029-13.997,18.881c-3.515,4.073,4.993,15.16,5.34,20.19
						c0.347,5.03-0.745,25.778-0.745,25.778c5.554-0.228,11.108-0.46,16.667-0.689c4.323-0.174,13.307,4.579,14.907-2.163
						c0.471-1.982-0.053-4.048-0.535-6.028c-3.014-12.387-4.412-25.13-4.296-37.875c0.063-6.793-1.343-19.258-10.831-18.241
						C619.951,254.384,618.299,254.01,618.299,254.01z"/>
					<g>
						<path style="fill:#FFC1B2;" d="M618.886,276.991l-10.641,20.137c0,0-26.811,3.413-32.202,3.696l0.284,5.958l42.092,0.023
							l12.951-28.964L618.886,276.991z"/>
						<path style="fill:#FF882E;" d="M614.172,278.466c0,0-1.062-20.619,10.096-20.864c12.213-0.268,8.571,21.382,8.571,21.382
							L614.172,278.466z"/>
					</g>
					<path style="fill:#DE7A2F;" d="M617.101,256.627l-0.147-1.863c-0.109-1.385,0.963-2.58,2.352-2.62l7.581-0.217
						c1.328-0.038,2.44,0.998,2.497,2.325l0.15,3.516C629.534,257.768,627.216,254.114,617.101,256.627z"/>
				</g>
			</g>
		</g>
		<g>
			<polygon style="fill:#9ED3FF;" points="578.135,307.22 494.104,307.22 481.325,238.904 567.382,238.904 			"/>
			<circle style="fill:#FFFFFF;" cx="527.391" cy="274.907" r="9.269"/>
		</g>
	</g>
	<g>
		<path style="fill:#3D384E;" d="M654.081,348.111c0,4.086-14.873,7.399-33.219,7.399c-18.347,0-33.219-3.313-33.219-7.399
			c0-4.086,14.873-3.473,33.219-3.473C639.208,344.638,654.081,344.024,654.081,348.111z"/>
		<path style="fill:#3D384E;" d="M654.081,348.111h-15.402v-64.023c0-4.253,3.448-7.701,7.701-7.701l0,0
			c4.253,0,7.701,3.448,7.701,7.701V348.111z"/>
		<g>
			<rect x="619.769" y="352.124" style="fill:#3D384E;" width="5.517" height="45.71"/>
			<g>
				<polygon style="fill:#3D384E;" points="597.537,410.624 594.664,405.134 620.547,390.418 623.42,395.908 				"/>
			</g>
			<g>
				<polygon style="fill:#3D384E;" points="647.134,410.624 621.252,395.908 624.125,390.418 650.008,405.134 				"/>
			</g>
			<path style="fill:#3D384E;" d="M602.073,406.23c0,2.707-2.194,4.901-4.901,4.901c-2.707,0-4.901-2.194-4.901-4.901
				c0-2.706,2.194-4.901,4.901-4.901C599.878,401.33,602.073,403.524,602.073,406.23z"/>
			<path style="fill:#3D384E;" d="M651.586,406.23c0,2.707-2.194,4.901-4.901,4.901c-2.707,0-4.901-2.194-4.901-4.901
				c0-2.706,2.194-4.901,4.901-4.901C649.392,401.33,651.586,403.524,651.586,406.23z"/>
		</g>
	</g>
	<g>
		<path style="fill:#3D384E;" d="M102.356,323.063h566.677c5.097,0,9.23-4.132,9.23-9.23l0,0c0-5.097-4.132-9.23-9.23-9.23H102.356
			c-5.097,0-9.23,4.132-9.23,9.23l0,0C93.126,318.931,97.259,323.063,102.356,323.063z"/>
		<path style="fill:#3D384E;" d="M113.314,415.374L113.314,415.374c-4.417,0-7.998-3.581-7.998-7.998v-86.52
			c0-4.417,3.581-7.998,7.998-7.998h0c4.417,0,7.998,3.581,7.998,7.998v86.52C121.312,411.794,117.731,415.374,113.314,415.374z"/>
		<path style="fill:#3D384E;" d="M390.324,415.374L390.324,415.374c-4.417,0-7.998-3.581-7.998-7.998v-86.52
			c0-4.417,3.581-7.998,7.998-7.998l0,0c4.417,0,7.998,3.581,7.998,7.998v86.52C398.322,411.794,394.741,415.374,390.324,415.374z"
			/>
		<path style="fill:#3D384E;" d="M663.61,415.374L663.61,415.374c-4.417,0-7.998-3.581-7.998-7.998v-86.52
			c0-4.417,3.581-7.998,7.998-7.998l0,0c4.417,0,7.998,3.581,7.998,7.998v86.52C671.608,411.794,668.027,415.374,663.61,415.374z"/>
	</g>
	<g>
		<g>
			<path style="fill:#3D384E;" d="M238.624,78.426c-24.383,0-44.221,19.837-44.221,44.221s19.837,44.221,44.221,44.221
				c24.384,0,44.221-19.837,44.221-44.221S263.008,78.426,238.624,78.426z M268.971,150.51l-4.589-4.589
				c-0.586-0.586-1.535-0.586-2.121,0c-0.586,0.585-0.586,1.536,0,2.121l4.598,4.598c-7.043,6.634-16.408,10.819-26.734,11.191
				v-6.619c0-0.829-0.671-1.5-1.5-1.5c-0.829,0-1.5,0.671-1.5,1.5v6.619c-10.326-0.372-19.691-4.557-26.734-11.191l4.598-4.598
				c0.586-0.585,0.586-1.536,0-2.121c-0.586-0.586-1.535-0.586-2.121,0l-4.589,4.589c-6.507-7.082-10.565-16.439-10.846-26.725
				h6.265c0.829,0,1.5-0.671,1.5-1.5s-0.671-1.5-1.5-1.5h-6.247c0.455-10.183,4.626-19.411,11.182-26.371l4.235,4.235
				c0.293,0.293,0.677,0.439,1.061,0.439c0.384,0,0.768-0.146,1.061-0.439c0.586-0.586,0.586-1.536,0-2.121l-4.226-4.226
				c6.998-6.431,16.219-10.471,26.362-10.837v5.894c0,0.829,0.671,1.5,1.5,1.5c0.829,0,1.5-0.671,1.5-1.5v-5.894
				c10.144,0.365,19.364,4.406,26.363,10.837l-4.226,4.226c-0.586,0.585-0.586,1.536,0,2.121c0.293,0.293,0.677,0.439,1.06,0.439
				c0.384,0,0.768-0.146,1.061-0.439l4.234-4.235c6.556,6.96,10.726,16.188,11.182,26.371h-6.247c-0.829,0-1.5,0.671-1.5,1.5
				s0.671,1.5,1.5,1.5h6.266C279.536,134.071,275.478,143.428,268.971,150.51z"/>
			<path style="fill:#3D384E;" d="M241.438,122.884c0.041-0.194,0.064-0.394,0.064-0.599c0-1.038-0.555-1.94-1.379-2.446V92.332
				c0-0.829-0.671-1.5-1.5-1.5c-0.829,0-1.5,0.671-1.5,1.5v27.506c-0.824,0.506-1.378,1.408-1.378,2.446
				c0,1.59,1.289,2.878,2.878,2.878c0.258,0,0.504-0.045,0.742-0.109l14.942,14.152c0.291,0.275,0.661,0.411,1.031,0.411
				c0.398,0,0.794-0.157,1.089-0.468c0.57-0.602,0.544-1.551-0.057-2.121L241.438,122.884z"/>
		</g>
	</g>
	<g>
		<g>
			<path style="fill:none;stroke:#3D384E;stroke-miterlimit:10;" d="M397.498,275.389c0,0,2.357-16.356,9.629-23.528"/>
			<g>
				<path style="fill:#3D384E;" d="M405.425,253.764c0.116-0.063,0.236-0.694,0.278-0.814c0.259-0.732,0.537-1.457,0.829-2.176
					c0.894-2.206,1.917-4.368,3.137-6.413c1.411-2.366,3.14-4.823,5.548-6.263c1.199-0.717,2.931-1.068,4.32-0.963
					c2.32,0.176,3.987,2.141,2.814,4.346c-0.98,1.842-2.908,3.03-4.498,4.288c-2.471,1.957-5.124,3.685-7.813,5.323
					C408.522,252.017,406.989,252.921,405.425,253.764z"/>
			</g>
		</g>
		<g>
			<path style="fill:none;stroke:#3D384E;stroke-miterlimit:10;" d="M402.41,282.219c0,0,0.923-12.748,8.194-19.92"/>
			<g>
				<path style="fill:#3D384E;" d="M408.54,264.614c0.172-0.093,0.358-1.022,0.426-1.201c0.375-0.996,0.79-1.977,1.247-2.937
					c1.106-2.324,2.481-4.815,4.56-6.411c1.314-1.008,5.097-2.053,5.846,0.283c0.128,0.398,0.027,0.834-0.136,1.219
					c-0.584,1.38-1.86,2.334-2.992,3.25c-1.257,1.018-2.594,1.938-3.952,2.817C411.912,262.688,410.247,263.694,408.54,264.614z"/>
			</g>
		</g>
		<g>
			<path style="fill:none;stroke:#3D384E;stroke-miterlimit:10;" d="M386.201,250.656c0,0,7.507,6.39,10.974,26.485"/>
			<g>
				<path style="fill:#3D384E;" d="M388.416,253.193c-0.156-0.094-0.309-0.675-0.383-0.833c-0.347-0.741-0.704-1.478-1.069-2.21
					c-1.12-2.245-2.314-4.457-3.623-6.599c-1.348-2.204-2.81-4.416-4.646-6.25c-1.103-1.102-2.823-2.59-4.52-1.995
					c-1.082,0.38-2.044,1.663-2.177,2.76c-0.215,1.779,1.533,3.601,2.678,4.795c1.227,1.28,2.579,2.439,3.962,3.544
					c2.552,2.04,5.246,3.906,7.995,5.669C387.223,252.454,387.816,252.831,388.416,253.193z"/>
			</g>
		</g>
		<g>
			<path style="fill:none;stroke:#3D384E;stroke-miterlimit:10;" d="M394.056,275.822c0,0-3.225-9.46,1.057-18.732"/>
			<g>
				<path style="fill:#3D384E;" d="M394.472,258.776c-0.108-1.753-0.041-3.535,0.129-5.281c0.261-2.678,0.749-5.948,2.695-7.977
					c0.931-0.971,2.241-1.464,3.589-1.307c4.742,0.55-3.754,11.261-4.918,12.732C395.478,257.56,394.983,258.176,394.472,258.776z"
					/>
			</g>
		</g>
		<g>
			<path style="fill:none;stroke:#3D384E;stroke-miterlimit:10;" d="M393.922,275.442c0,0-6.321-11.109-15.972-14.452"/>
			<g>
				<path style="fill:#3D384E;" d="M382.774,263.322c-0.195-0.024-0.706-0.826-0.834-0.968c-0.712-0.795-1.456-1.562-2.233-2.295
					c-2.564-2.422-6.865-6.157-10.601-3.964c-0.427,0.251-0.822,0.574-1.087,0.992c-1.36,2.141,1.936,3.245,3.399,3.772
					c1.561,0.563,3.18,0.968,4.799,1.323c2.161,0.474,4.348,0.857,6.543,1.139C382.765,263.32,382.77,263.321,382.774,263.322z"/>
			</g>
		</g>
		<rect x="385.331" y="271.28" style="fill:#FF7A17;" width="23.689" height="33.366"/>
	</g>
</g>
</svg>
